<svg width="36" height="36" viewBox="0 0 36 36" fill="none" xmlns="http://www.w3.org/2000/svg">
<g clip-path="url(#clip0_3_2)">
<rect width="36" height="36" rx="8" fill="#33334F"/>
<path d="M12.752 28.196C11.7813 28.196 11.296 27.7013 11.296 26.712V9.744C11.296 8.75467 11.7907 8.26 12.78 8.26H19.472C21.6 8.26 23.2427 8.77333 24.4 9.8C25.5573 10.808 26.136 12.2267 26.136 14.056C26.136 15.5307 25.744 16.744 24.96 17.696C24.176 18.6293 23.0653 19.2547 21.628 19.572C22.524 19.8707 23.28 20.5893 23.896 21.728L26.304 26.208C26.584 26.712 26.64 27.1693 26.472 27.58C26.304 27.9907 25.9213 28.196 25.324 28.196C24.9133 28.196 24.5773 28.112 24.316 27.944C24.0547 27.776 23.8307 27.5053 23.644 27.132L20.704 21.7C20.312 20.972 19.8547 20.4867 19.332 20.244C18.828 19.9827 18.1747 19.852 17.372 19.852H14.208V26.712C14.208 27.7013 13.7227 28.196 12.752 28.196ZM14.208 17.668H18.996C21.8707 17.668 23.308 16.4827 23.308 14.112C23.308 11.76 21.8707 10.584 18.996 10.584H14.208V17.668Z" fill="white"/>
</g>
<defs>
<clipPath id="clip0_3_2">
<rect width="36" height="36" rx="8" fill="white"/>
</clipPath>
</defs>
</svg>
