<svg width="70" height="21" viewBox="0 0 70 21" fill="none" xmlns="http://www.w3.org/2000/svg">
<g clip-path="url(#clip0_1_2)">
<path d="M1.752 20.196C0.781333 20.196 0.296 19.7013 0.296 18.712V1.744C0.296 0.754666 0.790667 0.259999 1.78 0.259999H8.472C10.6 0.259999 12.2427 0.773332 13.4 1.8C14.5573 2.808 15.136 4.22667 15.136 6.056C15.136 7.53067 14.744 8.744 13.96 9.696C13.176 10.6293 12.0653 11.2547 10.628 11.572C11.524 11.8707 12.28 12.5893 12.896 13.728L15.304 18.208C15.584 18.712 15.64 19.1693 15.472 19.58C15.304 19.9907 14.9213 20.196 14.324 20.196C13.9133 20.196 13.5773 20.112 13.316 19.944C13.0547 19.776 12.8307 19.5053 12.644 19.132L9.704 13.7C9.312 12.972 8.85467 12.4867 8.332 12.244C7.828 11.9827 7.17467 11.852 6.372 11.852H3.208V18.712C3.208 19.7013 2.72267 20.196 1.752 20.196ZM3.208 9.668H7.996C10.8707 9.668 12.308 8.48267 12.308 6.112C12.308 3.76 10.8707 2.584 7.996 2.584H3.208V9.668ZM20.3372 3.284C19.7772 3.284 19.3386 3.144 19.0212 2.864C18.7226 2.584 18.5732 2.192 18.5732 1.688C18.5732 0.623999 19.1612 0.0919993 20.3372 0.0919993C21.5132 0.0919993 22.1012 0.623999 22.1012 1.688C22.1012 2.752 21.5132 3.284 20.3372 3.284ZM20.3372 20.168C19.4039 20.168 18.9372 19.6547 18.9372 18.628V7.708C18.9372 6.7 19.4039 6.196 20.3372 6.196C21.2892 6.196 21.7652 6.7 21.7652 7.708V18.628C21.7652 19.6547 21.2892 20.168 20.3372 20.168ZM30.9538 20.252C29.7591 20.252 28.7045 19.972 27.7898 19.412C26.8938 18.8333 26.1938 18.012 25.6898 16.948C25.1858 15.884 24.9338 14.624 24.9338 13.168C24.9338 11.712 25.1858 10.4613 25.6898 9.416C26.1938 8.352 26.8938 7.53067 27.7898 6.952C28.6858 6.37333 29.7405 6.084 30.9538 6.084C31.9805 6.084 32.8951 6.308 33.6978 6.756C34.5005 7.204 35.0978 7.81067 35.4898 8.576V1.492C35.4898 0.54 35.9565 0.0639997 36.8898 0.0639997C37.8418 0.0639997 38.3178 0.54 38.3178 1.492V18.768C38.3178 19.72 37.8511 20.196 36.9178 20.196C35.9845 20.196 35.5178 19.72 35.5178 18.768V17.704C35.1071 18.488 34.5005 19.1133 33.6978 19.58C32.8951 20.028 31.9805 20.252 30.9538 20.252ZM31.6818 18.068C32.8391 18.068 33.7725 17.648 34.4818 16.808C35.1911 15.968 35.5458 14.7547 35.5458 13.168C35.5458 11.5813 35.1911 10.3773 34.4818 9.556C33.7725 8.716 32.8391 8.296 31.6818 8.296C30.5058 8.296 29.5631 8.716 28.8538 9.556C28.1445 10.3773 27.7898 11.5813 27.7898 13.168C27.7898 14.7547 28.1445 15.968 28.8538 16.808C29.5631 17.648 30.5058 18.068 31.6818 18.068ZM48.7008 20.252C46.4608 20.252 44.6968 19.6267 43.4088 18.376C42.1208 17.1067 41.4768 15.38 41.4768 13.196C41.4768 11.796 41.7568 10.564 42.3168 9.5C42.8954 8.41733 43.6888 7.57733 44.6968 6.98C45.7048 6.38267 46.8621 6.084 48.1688 6.084C50.0541 6.084 51.5381 6.69067 52.6208 7.904C53.7034 9.09867 54.2448 10.7507 54.2448 12.86C54.2448 13.4947 53.8714 13.812 53.1248 13.812H44.2208C44.4261 16.6493 45.9288 18.068 48.7288 18.068C49.2888 18.068 49.8768 18.0027 50.4928 17.872C51.1088 17.7227 51.7061 17.4613 52.2848 17.088C52.6768 16.864 53.0128 16.7893 53.2928 16.864C53.5914 16.92 53.8061 17.0787 53.9368 17.34C54.0674 17.5827 54.0861 17.8627 53.9928 18.18C53.9181 18.4787 53.7034 18.74 53.3488 18.964C52.7141 19.3933 51.9674 19.72 51.1088 19.944C50.2688 20.1493 49.4661 20.252 48.7008 20.252ZM48.2808 8.072C47.1048 8.072 46.1714 8.436 45.4808 9.164C44.7901 9.892 44.3701 10.8627 44.2208 12.076H51.8648C51.8088 10.8067 51.4728 9.82667 50.8568 9.136C50.2408 8.42667 49.3821 8.072 48.2808 8.072ZM57.6945 20.168C57.1905 20.168 56.8265 19.9627 56.6025 19.552C56.3971 19.1413 56.4998 18.6747 56.9105 18.152L61.1105 12.944L57.2185 8.128C56.7891 7.624 56.6865 7.16667 56.9105 6.756C57.1345 6.34533 57.4891 6.14 57.9745 6.14C58.3291 6.14 58.6185 6.20533 58.8425 6.336C59.0851 6.448 59.3091 6.644 59.5145 6.924L62.7345 11.012L65.9825 6.924C66.1878 6.644 66.4025 6.448 66.6265 6.336C66.8505 6.20533 67.1398 6.14 67.4945 6.14C67.9798 6.14 68.3345 6.34533 68.5585 6.756C68.7825 7.16667 68.6798 7.63333 68.2505 8.156L64.3585 12.972L68.5585 18.152C68.9691 18.656 69.0625 19.1227 68.8385 19.552C68.6331 19.9627 68.2785 20.168 67.7745 20.168C67.1585 20.168 66.6451 19.9067 66.2345 19.384L62.7065 14.96L59.2065 19.384C59.0011 19.6453 58.7865 19.8413 58.5625 19.972C58.3385 20.1027 58.0491 20.168 57.6945 20.168Z" fill="#33334F"/>
</g>
<defs>
<clipPath id="clip0_1_2">
<rect width="70" height="21" fill="white"/>
</clipPath>
</defs>
</svg>
